<svg width="155" height="145" viewBox="0 0 155 145" fill="none" xmlns="http://www.w3.org/2000/svg">
<rect width="155" height="145" rx="20" fill="white"/>
<path d="M25.0656 31.44H49.0656V114H25.0656V31.44ZM58.9056 85.92H54.1056V67.56H58.1856C60.6656 67.56 62.5456 67.48 63.8256 67.32C65.1056 67.08 66.1056 66.68 66.8256 66.12C67.4656 65.56 67.9056 64.72 68.1456 63.6C68.3856 62.48 68.5056 60.84 68.5056 58.68C68.5056 56.52 68.3856 54.88 68.1456 53.76C67.9056 52.56 67.4656 51.68 66.8256 51.12C66.1856 50.56 65.2256 50.2 63.9456 50.04C62.7456 49.88 60.8256 49.8 58.1856 49.8H54.1056V31.44H66.4656C72.1456 31.44 76.7456 32 80.2656 33.12C83.7856 34.24 86.5056 35.96 88.4256 38.28C90.1856 40.44 91.3456 43.12 91.9056 46.32C92.5456 49.52 92.8656 53.64 92.8656 58.68C92.8656 65.16 92.2656 70.16 91.0656 73.68C89.3856 78.16 86.4256 81.32 82.1856 83.16L94.6656 114H69.4656L58.9056 85.92Z" fill="#0D2636"/>
<path d="M105.805 94.44H130.045V114H105.805V94.44Z" fill="#E38445"/>
</svg>
